<svg width="512" height="512" xmlns="http://www.w3.org/2000/svg">
 <defs>
  <linearGradient y2="Infinity" y1="Infinity" x2="Infinity" x1="Infinity" id="SVGID_4_">
   <stop stop-color="#162029" offset="0"/>
   <stop stop-color="#394247" offset="1"/>
  </linearGradient>
 </defs>
 <g>
  <title>background</title>
  <rect fill="none" id="canvas_background" height="402" width="582" y="-1" x="-1"/>
 </g>
 <g>
  <title>Layer 1</title>
  <path id="svg_2" fill="#4c4c4c" d="m357.885986,97.813004l5.61499,-17.025002l-9.649994,-11.097c-59.867981,14.002998 -96.725983,23.033997 -129.921997,78.749992l31.643997,5.402008c21.489029,-40.373001 59.665024,-49.917 102.313004,-56.029999z"/>
  <path id="svg_3" fill="#4c4c4c" d="m308.415985,188.360992l5.705017,-37.050003l-22.716003,-3.522003l3.207977,-21.585999l-75.86499,-11.620995l-3.312988,21.478996l-22.822006,-3.416992l-5.707001,37.034988c-63.828003,14.736008 -115.402,67.035019 -125.972,135.723999c-13.901001,90.278015 47.933998,174.643005 138.093994,188.643005c90.192993,13.910004 174.64801,-47.932983 188.554993,-138.210999c10.689026,-68.690002 -22.714966,-134.056992 -79.166992,-167.473999z"/>
  <polygon id="svg_4" fill="#4c4c4c" points="355.377,74.832 360.974,82.3 347.384,121.634 385.47,109.486 420.138,133.454     418.061,92.263 453.017,69.851 413.697,56.465 401.336,16 401.243,16 377.385,50.549 336.076,50.144 338.785,52.521   "/>
  <path id="svg_5" fill="url(#SVGID_4_)" d="m320.51001,205.223007c4.536011,7.537003 8.572998,15.636002 12.281006,24.070999c19.796997,25.662003 32.286987,62.622009 32.286987,103.877991c0,42.528992 -13.277008,80.497009 -34.141998,106.184998c-3.115997,6.69101 -6.44101,13.173004 -10.084991,19.285004c33.053986,-22.506012 55.980011,-70.649994 55.980011,-126.588989c0.000977,-56.136017 -23.085022,-104.423004 -56.321014,-126.830002z"/>
 </g>
</svg>