<svg width="96" height="96" xmlns="http://www.w3.org/2000/svg">

 <g>
  <title>background</title>
  <rect fill="none" id="canvas_background" height="402" width="582" y="-1" x="-1"/>
 </g>
 <g>
  <title>Layer 1</title>
  <path fill="#ffffff" id="svg_1" d="m48,4c-24.299999,0 -44,19.700001 -44,44c0,24.301003 19.700001,44 44,44c24.301003,0 44,-19.698997 44,-44c0,-24.299999 -19.698997,-44 -44,-44zm0,80c-19.882,0 -36,-16.117996 -36,-36s16.118,-36 36,-36s36,16.118 36,36s-16.117996,36 -36,36z"/>
  <path fill="#ffffff" id="svg_2" d="m52,46.342999l0,-22.342999c0,-2.209 -1.791,-4 -4,-4s-4,1.791 -4,4l0,24c0,0.008999 0.002998,0.018002 0.002998,0.027c0.001003,0.252998 0.026001,0.506001 0.076,0.755001c0.024002,0.122997 0.069,0.233997 0.104,0.354c0.039001,0.132 0.069,0.265999 0.122002,0.394997c0.057999,0.138 0.136002,0.264 0.208,0.394001c0.054001,0.100002 0.097,0.200001 0.16,0.295002c0.146999,0.221001 0.313999,0.427998 0.500999,0.612999l11.311001,11.312c1.562,1.562 4.097,1.562 5.658001,0c1.562,-1.562 1.562,-4.097 0,-5.656002l-10.143002,-10.146z"/>
 </g>
</svg>